<svg xmlns="http://www.w3.org/2000/svg" xmlns:xlink="http://www.w3.org/1999/xlink" viewBox="0 0 525.9 479.78"><defs><linearGradient id="linear-gradient" x1="0.87" y1="468.39" x2="525.02" y2="468.39" gradientUnits="userSpaceOnUse"><stop offset="0" stop-color="#a48955"/><stop offset="0.12" stop-color="#977b52"/><stop offset="0.25" stop-color="#e2d6b0"/><stop offset="0.3" stop-color="#ded09f"/><stop offset="0.34" stop-color="#dcce99"/><stop offset="0.58" stop-color="#ab9467"/><stop offset="0.69" stop-color="#977c52"/><stop offset="1" stop-color="#b8a36c"/></linearGradient><linearGradient id="linear-gradient-2" x1="61.79" y1="209.38" x2="484.84" y2="209.38" gradientUnits="userSpaceOnUse"><stop offset="0.09" stop-color="#977b52"/><stop offset="0.61" stop-color="#dacb95"/><stop offset="0.69" stop-color="#c4b17f"/><stop offset="0.81" stop-color="#ab9366"/><stop offset="0.91" stop-color="#9c8157"/><stop offset="0.98" stop-color="#977b52"/></linearGradient><linearGradient id="linear-gradient-3" x1="164.81" y1="471.42" x2="350.71" y2="249.87" xlink:href="#linear-gradient"/><linearGradient id="linear-gradient-4" x1="437.34" y1="295.48" x2="94.14" y2="420.4" xlink:href="#linear-gradient-2"/><linearGradient id="linear-gradient-5" x1="94.34" y1="367.16" x2="432.94" y2="367.16" gradientUnits="userSpaceOnUse"><stop offset="0.25" stop-color="#977b52"/><stop offset="0.44" stop-color="#7a6846"/><stop offset="0.98" stop-color="#dacb95"/></linearGradient></defs><g id="Layer_2" data-name="Layer 2"><g id="Layer_1-2" data-name="Layer 1"><path d="M520.77,478.91l-14.41-12.12c0,.3,0,.58,0,.83v11.29H500.6v-21h4.26l13.81,11.57c.22.17.42.34.61.51,0-.47,0-.83,0-1.08v-11H525v21Zm-47.68,0c-2.13,0-3.57-.39-4.4-1.21s-1.25-2.2-1.25-4.23V463.31c0-2,.41-3.39,1.25-4.21s2.27-1.22,4.4-1.22h14.19c2.14,0,3.58.4,4.41,1.22s1.25,2.2,1.25,4.21v10.16c0,2-.41,3.42-1.25,4.23s-2.28,1.21-4.41,1.21Zm13.63-5.38V463.08h-13v10.45Zm-32.07,5.38v-21h6.23v21Zm-20,0V463.08H425.8v-5.2h24v5.2h-8.88v15.83Zm-20,0v-21h6.24v21Zm-30.5,0v-21h13.28c3.74,0,6.68.91,8.73,2.69a9.7,9.7,0,0,1,3.16,7.71,11.41,11.41,0,0,1-1.21,5.26,9.18,9.18,0,0,1-3.46,3.74,9.91,9.91,0,0,1-3.42,1.26,27.93,27.93,0,0,1-4.95.37Zm11.16-5.38c2.89,0,4.92-.43,6.05-1.27s1.58-2.12,1.58-4.06a5,5,0,0,0-1.33-3.84,5.89,5.89,0,0,0-4.15-1.28h-7.07v10.45ZM356,478.91v-21h21.49v5H362.21v2.56h8.9v5h-8.9v3h15.43v5.38Zm-43.81,0v-21h21.49v5H318.4v2.56h8.9v5h-8.9v3h15.43v5.38Zm-18.56,0-12.16-21h7.16l7.27,13,6.94-13h6.47l-11.56,21Zm-21.22,0v-21h6.24v21Zm-18.86,0V463.08h-8.85v-5.2h24v5.2h-8.89v15.83Zm-20,0v-21h6.24v21Zm-10.06,0-14.4-12.12c0,.3,0,.58,0,.83v11.29h-5.78v-21h4.26l13.81,11.57c.21.17.42.34.61.51,0-.47,0-.83,0-1.08v-11h5.78v21Zm-33.32,0v-21h6.24v21Zm-26.2,0v-21h21.25V463h-15v3.32h8.12v5.27H170.2v7.32Zm-28.2,0v-21h21.48v5H142v2.56h8.9v5H142v3h15.43v5.38Zm-31.65,0v-21H117.4c3.74,0,6.68.91,8.73,2.69a9.72,9.72,0,0,1,3.16,7.71,11.41,11.41,0,0,1-1.21,5.26,9.25,9.25,0,0,1-3.46,3.74,10,10,0,0,1-3.42,1.26,27.93,27.93,0,0,1-5,.37Zm11.16-5.38c2.88,0,4.92-.43,6-1.27s1.59-2.12,1.59-4.06a5,5,0,0,0-1.34-3.84,5.85,5.85,0,0,0-4.14-1.28h-7.07v10.45Zm-53.83,5.38v-21H82.94v5H67.69v2.56h8.9v5h-8.9v3H83.12v5.38Zm-13.23,0v-8.3H36v8.3H29.72v-21H36v7.48H48.22v-7.48H54.5v21Zm-38.5,0V463.08H.87v-5.2h24v5.2H16v15.83Z" style="fill:url(#linear-gradient)"/><path d="M524.15,458.75V478h-3.07l-14.15-11.91c-.34-.3-.64-.57-.89-.82a8.44,8.44,0,0,1-.72-.75c.07.6.11,1.16.14,1.69s.05,1,.05,1.38V478h-4V458.75h3.06l13.57,11.37c.46.38.87.73,1.22,1.06a10.41,10.41,0,0,1,1,1c-.07-1.09-.12-1.85-.15-2.3s0-.8,0-1V458.75h4m-36.87,0c1.88,0,3.14.33,3.8,1s1,1.84,1,3.59v10.16c0,1.77-.32,3-1,3.61s-1.92.95-3.8.95H473.09c-1.87,0-3.13-.31-3.79-.95s-1-1.84-1-3.61V463.31c0-1.75.33-2.94,1-3.59s1.92-1,3.79-1h14.19M472.8,474.4h14.79V462.2H472.8v12.2M460,458.75V478h-4.49V458.75H460m-11.12,0v3.45H440V478h-4.48V462.2h-8.85v-3.45h22.22m-28.85,0V478h-4.49V458.75H420m-22.59,0q5.31,0,8.16,2.48a8.87,8.87,0,0,1,2.86,7,10.48,10.48,0,0,1-1.12,4.86,8.42,8.42,0,0,1-3.13,3.4,9.29,9.29,0,0,1-3.13,1.14,26.31,26.31,0,0,1-4.79.35H385V458.75h12.41m-7.92,15.65h5.8q4.64,0,6.57-1.44c1.29-1,1.93-2.54,1.93-4.76a5.9,5.9,0,0,0-1.6-4.48,6.68,6.68,0,0,0-4.75-1.52h-8v12.2m-12.95-15.65V462H361.33v4.3h8.9v3.29h-8.9v4.77h15.43V478H356.84V458.75h19.74m-43.81,0V462H317.52v4.3h8.91v3.29h-8.91v4.77H333V478H313V458.75h19.73m-25,0L297.2,478h-3.1L283,458.75h5.12l7.81,13.94,7.44-13.94h4.47m-30.06,0V478h-4.49V458.75h4.49m-10,0v3.45h-8.88V478h-4.49V462.2h-8.84v-3.45h22.21m-28.85,0V478h-4.48V458.75h4.48m-12,0V478h-3.07l-14.15-11.91c-.34-.3-.64-.57-.9-.82a10,10,0,0,1-.71-.75c.06.6.11,1.16.14,1.69s.05,1,.05,1.38V478h-4V458.75h3.07l13.57,11.37c.46.38.87.73,1.22,1.06a10.41,10.41,0,0,1,1,1c-.07-1.09-.12-1.85-.15-2.3s0-.8,0-1V458.75h4m-31.35,0V478h-4.48V458.75h4.48m-11.19,0v3.38h-15v5.07h8.12v3.52h-8.12V478h-4.49V458.75h19.5m-28,0V462H141.13v4.3H150v3.29h-8.9v4.77h15.43V478H136.64V458.75h19.74m-39,0q5.31,0,8.16,2.48a8.86,8.86,0,0,1,2.85,7,10.48,10.48,0,0,1-1.11,4.86,8.44,8.44,0,0,1-3.14,3.4,9.15,9.15,0,0,1-3.12,1.14,26.31,26.31,0,0,1-4.79.35H105V458.75H117.4m-7.92,15.65h5.8q4.64,0,6.57-1.44c1.29-1,1.93-2.54,1.93-4.76a5.9,5.9,0,0,0-1.6-4.48,6.69,6.69,0,0,0-4.75-1.52h-8v12.2M82.06,458.75V462H66.81v4.3h8.91v3.29H66.81v4.77H82.25V478H62.33V458.75H82.06m-28.44,0V478H49.1v-8.29h-14V478H30.6V458.75h4.49v7.48h14v-7.48h4.52m-29.65,0v3.45H15.08V478H10.6V462.2H1.75v-3.45H24M525.9,457h-7.53v11.05l-12.71-10.64-.48-.41h-5.45v22.78h7.53V468.69L520,479.37l.49.41h5.45V457Zm-38.62,0H473.09c-2.37,0-4,.48-5,1.47s-1.51,2.58-1.51,4.84v10.16c0,2.28.5,3.87,1.52,4.86s2.65,1.45,5,1.45h14.19c2.37,0,4-.47,5-1.45s1.51-2.58,1.51-4.86V463.31c0-2.26-.49-3.84-1.5-4.84s-2.65-1.47-5-1.47ZM474.55,464h11.29v8.7H474.55V464ZM461.76,457h-8v22.78h8V457Zm-11.12,0H424.92V464h8.85v15.83h8V464h8.89V457Zm-28.85,0h-8v22.78h8V457Zm-24.34,0H383.29v22.78h13a28,28,0,0,0,5.12-.38,10.84,10.84,0,0,0,3.72-1.38,10.17,10.17,0,0,0,3.77-4.08,12.22,12.22,0,0,0,1.31-5.66,10.57,10.57,0,0,0-3.46-8.37c-2.22-1.93-5.36-2.91-9.31-2.91ZM391.28,464h6.2a5.06,5.06,0,0,1,3.54,1,4.2,4.2,0,0,1,1.06,3.21c0,1.65-.4,2.74-1.23,3.36-.67.5-2.17,1.09-5.52,1.09h-4.05V464ZM378.33,457H355.09v22.78h23.42v-7.13H363.08v-1.27H372v-6.79h-8.9v-.8h15.25V457Zm-43.81,0H311.29v22.78h23.42v-7.13H319.27v-1.27h8.91v-6.79h-8.91v-.8h15.25V457Zm-23.76,0h-8.48l-.49.93L295.85,469l-6.24-11.14-.5-.9h-9.19l1.52,2.63,11.15,19.28.5.87h5.15l.5-.9,10.59-19.28,1.43-2.6Zm-31.27,0h-8v22.78h8V457Zm-10,0H243.8V464h8.84v15.83h8V464h8.88V457Zm-28.85,0h-8v22.78h8V457Zm-12,0H221.1v11.05l-12.71-10.64-.48-.41h-5.46v22.78H210V468.69l12.7,10.68.49.41h5.45V457Zm-31.35,0h-8v22.78h8V457Zm-11.19,0h-23v22.78h8v-7.31h8.12v-7h-8.12v-1.57h15V457Zm-28,0H134.89v22.78h23.42v-7.13H142.88v-1.27h8.9v-6.79h-8.9v-.8h15.25V457Zm-40.73,0H103.24v22.78h13a27.83,27.83,0,0,0,5.11-.38,10.81,10.81,0,0,0,3.73-1.38,10.17,10.17,0,0,0,3.77-4.08,12.34,12.34,0,0,0,1.3-5.66,10.56,10.56,0,0,0-3.45-8.37c-2.23-1.93-5.36-2.91-9.31-2.91ZM111.23,464h6.2a5.06,5.06,0,0,1,3.54,1A4.24,4.24,0,0,1,122,468.2c0,1.65-.4,2.74-1.23,3.36-.67.5-2.17,1.09-5.52,1.09h-4V464ZM83.81,457H60.58v22.78H84v-7.13H68.56v-1.27h8.91v-6.79H68.56v-.8H83.81V457Zm-28.44,0h-8v7.48H36.84V457h-8v22.78h8v-8.29H47.35v8.29h8V457Zm-29.65,0H0V464H8.85v15.83h8V464h8.89V457Z"/><path d="M450.85,137.57v-9.12H405.58v3.77H359.82a28.65,28.65,0,0,0-10.11,2,21.64,21.64,0,0,0-6,3.6c-6.18-5.33-14.34-5.63-16-5.63H295.44a28.51,28.51,0,0,0-10.1,2,21.67,21.67,0,0,0-5.75,3.44A22.55,22.55,0,0,0,265,132.41H254.23v-7.11h18.32v.06H414.38V2H368.94V22.81h-9.65a29.08,29.08,0,0,0-10.08,2.07A21.73,21.73,0,0,0,343,28.64a21,21,0,0,0-2.87-2.07,26.17,26.17,0,0,0-12.93-3.66H317.8l-86.86-.06a28.57,28.57,0,0,0-10.08,2.05,21.8,21.8,0,0,0-5.9,3.57,24.91,24.91,0,0,0-16-5.67H102.08C91.17,22.81,79.5,30.91,79.5,43V151.41l55.12,0a31.48,31.48,0,0,0,3.58-.21v26.54h6.4v37.1a19,19,0,0,0,3,10.46h-.73c-1.76,0-10.8.3-17.09,6.58a18.85,18.85,0,0,0-5.48,13.65v62.15a18.91,18.91,0,0,0,3.09,10.63L64.22,316.7l19,100,364.71-12,13-78-70.71-1.79A18.61,18.61,0,0,0,401,307.66v-62.1a18.86,18.86,0,0,0-5.5-13.67,23.53,23.53,0,0,0-12.89-6.15V198.46h23v16.32A18.58,18.58,0,0,0,411,228.24c6.26,6.25,15.33,6.57,17.12,6.57h32.15c1.78,0,10.86-.28,17.15-6.54a18.61,18.61,0,0,0,5.43-13.49V137.57Z"/><path d="M414.38,2V125.35H272.55v-.06H254.23v7.11H265a22.55,22.55,0,0,1,14.55,5.29,21.67,21.67,0,0,1,5.75-3.44,28.51,28.51,0,0,1,10.1-2h32.25c1.7,0,9.86.3,16,5.63a21.64,21.64,0,0,1,6-3.6,28.65,28.65,0,0,1,10.11-2h45.76v-3.77h45.28v9.12h32v77.21a18.61,18.61,0,0,1-5.43,13.49c-6.29,6.26-15.37,6.52-17.15,6.54H428.11c-1.79,0-10.86-.32-17.12-6.57a18.58,18.58,0,0,1-5.41-13.46V198.46h-23v27.28a23.53,23.53,0,0,1,12.89,6.15,18.86,18.86,0,0,1,5.5,13.67v62.1a18.61,18.61,0,0,1-10.79,17.25l70.71,1.79-13,78-364.71,12-19-100,63.16,1.59a18.91,18.91,0,0,1-3.09-10.63V245.51a18.85,18.85,0,0,1,5.48-13.65c6-6,14.6-6.58,16.84-6.58h1a19,19,0,0,1-3-10.46v-37.1h-6.4V151.18a31.48,31.48,0,0,1-3.58.21l-55.12,0V43c0-12.07,11.67-20.17,22.58-20.17H199a24.91,24.91,0,0,1,16,5.67,21.8,21.8,0,0,1,5.9-3.57,28.57,28.57,0,0,1,10.08-2.05l86.86.06h9.44a26.17,26.17,0,0,1,12.93,3.66A21,21,0,0,1,343,28.64a21.73,21.73,0,0,1,6.17-3.76,29.08,29.08,0,0,1,10.08-2.07h9.65V2h45.44m2-2H366.94V20.81h-7.65A31.37,31.37,0,0,0,348.45,23,24.28,24.28,0,0,0,343,26.08a20.06,20.06,0,0,0-1.83-1.22,28.21,28.21,0,0,0-14-3.95h-9.45l-86.85-.06a30.75,30.75,0,0,0-10.84,2.2A24.7,24.7,0,0,0,215,25.93a27.45,27.45,0,0,0-16-5.12h-96.9C90.21,20.81,77.5,29.72,77.5,43V153.41h2l55.12,0c.53,0,1,0,1.58,0v26.36h6.4v35.1a21.38,21.38,0,0,0,1.72,8.58c-3.72.36-10.66,1.75-16,7a20.8,20.8,0,0,0-6.07,15.07v62.15A21.48,21.48,0,0,0,124,316.2l-59.71-1.5-2.48-.07.46,2.44,19,100,.32,1.68,1.71-.06,364.72-12,1.64-.05.26-1.62,13-78,.38-2.27-2.3-.05-64.55-1.63A20.5,20.5,0,0,0,403,307.66v-62.1a20.79,20.79,0,0,0-6.09-15.09,24.9,24.9,0,0,0-12.3-6.39V200.46h19v14.32a20.55,20.55,0,0,0,6,14.88c6.82,6.81,16.64,7.15,18.53,7.15h32.15c3.5-.05,12.27-.86,18.56-7.13a20.52,20.52,0,0,0,6-14.9V135.57h-32v-9.12H416.38V0ZM256.23,127.29h14.32v.06h133v2.87H359.82A31,31,0,0,0,349,132.4a24.74,24.74,0,0,0-5.22,2.91c-6.54-4.82-14.44-5.08-16-5.08H295.44a30.72,30.72,0,0,0-10.86,2.18,24.88,24.88,0,0,0-5,2.74A24.87,24.87,0,0,0,265,130.41h-8.81v-3.11Z" style="fill:url(#linear-gradient-2)"/><polygon points="441.12 396.92 451.53 334.46 73.92 324.94 89.8 408.48 441.12 396.92" style="fill:url(#linear-gradient-3)"/><path d="M77,327.52l371.63,9.37L439,394.48,91.85,405.91,77,327.52m-3-2.58L89.8,408.48l351.32-11.56,10.41-62.46-377.6-9.52Z" style="fill:url(#linear-gradient-4)"/><path d="M359.34,115.6h45.29V11.75H378.69V32.56H359.34s-12.89.07-12.89,10.49v62.24C346.45,115.51,359.34,115.6,359.34,115.6Zm13-62.2h6.29V95.27h-6.29Zm-225,77.39V32.56H102.08c-7.77,0-12.83,5.56-12.83,10.42v62.46c0,10.23,12.88,10.3,12.88,10.3h19.34V121H89.25v20.67h45.37C147.39,141.64,147.41,130.79,147.41,130.79ZM121.46,95.06h-6.28V53.39h6.28ZM308,53.45h6.25V115.6H340V43.14h0c0-8-8.79-10.48-12.79-10.48-8.63,0-15,1.8-19.2,5.23V32.67H282.3V115.6H308ZM473.09,168V147.32h-32V138.2H415.33v9.12h-6.4V168h6.4v46.74c0,10.3,12.8,10.28,12.8,10.28h32.16s12.8.05,12.8-10.28V173.13H447.48v31.22h-6.39V168ZM405,162.8l.1-20.83H359.83S347,142,347,152.46v72.68h25.92V188.72h32.24V167.88H372.87V162.8Zm-64.53,52V199.22H314.69v5.25h-6.27V194h32.06V152.43c0-10.47-12.81-10.45-12.81-10.45H295.44s-12.81,0-12.81,10.48v62.35c0,10.28,12.83,10.31,12.83,10.31l32.21,0S340.48,225.09,340.48,214.81Zm-32.06-52h6.27v10.33h-6.27Zm-154.07,52c0,10.24,12.82,10.32,12.82,10.32h32.16s12.81-.06,12.81-10.33h0V173.2H186.53v31.29h-6.4V168h32V147.32H179.78l0-9.48H154l0,9.48H148V168h6.4ZM179.77,84.57H186v46.65c0,10.3,13,10.31,13,10.31h19.75v83.61h25.77V162.93h6.23v62.21h25.75V152.62c0-10.46-11.43-10.46-11.43-10.46l-20.55,0V120.89l-32.72,0V79.32a6.74,6.74,0,0,0-3.22-6.12S211.75,72,211.76,69V43.14c0-10.48-12.8-10.58-12.8-10.58H154v99.57h25.76Zm0-31.14,6.24,0V63.78h-6.24ZM231,115.54h45V43.08c0-10.47-12.81-10.47-12.81-10.47H231s-12.81,0-12.81,10.47V58.45h25.76V53.38h6.25V63.69H231s-12.8,0-12.8,10.3v31.24C218.16,115.51,231,115.54,231,115.54Zm13-31.08h6.25V94.91h-6.25ZM179,235H146.85S134,235,134,245.51v15.36h25.75V255.8h6.26v10.31H146.84s-12.8,0-12.8,10.31v31.24c0,10.27,12.8,10.3,12.8,10.3h45V245.51C191.81,235,179,235,179,235Zm-12.95,62.31h-6.26V286.88h6.26Zm64.3-.08h-6.23V234.94H198.39V307.5c0,10.39,12.78,10.46,12.78,10.46h32.12s12.78-.07,12.78-10.35V235.05H230.35Zm64.47-66.47H269.05v9.42h-6.4v20.72h6.4v46.74h0c0,10.09,12.8,10.29,12.8,10.29H314s12.8-.06,12.8-10.29V266H301.21v31.22h-6.4v-36.3h32V240.21h-32Zm83.6,4.32H346.2s-12.82,0-12.82,10.45v62.1c0,10.3,12.82,10.3,12.82,10.3h32.22s12.84,0,12.84-10.3v-62.1C391.26,235,378.42,235.11,378.42,235.11Zm-13,62.25h-6.26v-41.5h6.26Z" style="fill:#fff"/><path d="M95.84,359.84h10.47v18.73h5.31V359.84h10.51v-4.08H95.84Zm56,4.77H135.25v-8.85h-5.31v22.81h5.31v-9.82h16.57v9.82h5.35V355.76h-5.35Zm21,4h10.53v-3.88H172.78v-5.1h18v-3.88H167.47v22.81H191v-4.3H172.78Zm40-8.78h10.47v18.73h5.31V359.84h10.51v-4.08H212.79ZM266.4,370a6,6,0,0,0,3.94-1.06,4.24,4.24,0,0,0,1.22-3.37v-5.35a4.25,4.25,0,0,0-1.22-3.38,6.07,6.07,0,0,0-3.94-1H246.89v22.81h5.22V370h5l9.19,8.61H274L263.42,370Zm-14.29-3.91v-6.34h11.94a3.19,3.19,0,0,1,1.89.4,1.69,1.69,0,0,1,.5,1.39v2.74a1.71,1.71,0,0,1-.5,1.41,3.19,3.19,0,0,1-1.89.4Zm30.55,12.52H288V355.76h-5.31Zm20.88-22.81h-5.3v22.81h22.42v-4.3H303.54Zm47.75,0H334.5c-2.22,0-3.71.38-4.49,1.14s-1.17,2.18-1.17,4.25v12c0,2.09.39,3.51,1.17,4.27s2.27,1.13,4.49,1.13h16.79c2.21,0,3.71-.38,4.49-1.13s1.16-2.18,1.16-4.27v-12c0-2.07-.39-3.49-1.16-4.25S353.5,355.76,351.29,355.76Zm.36,18.51h-17.5V359.84h17.5Zm36.44-18.51H372.36c-2.22,0-3.71.38-4.49,1.14s-1.17,2.18-1.17,4.25v12c0,2.09.39,3.51,1.17,4.27s2.27,1.13,4.49,1.13h15.73c2.22,0,3.71-.38,4.49-1.13s1.16-2.18,1.16-4.27v-7.85H379.91v3.88h8.68v5.07H372V359.84h16.58v2.54l5.15-.92v-.52c0-2-.39-3.31-1.18-4.06S390.28,355.76,388.09,355.76Zm35.13,0-7.86,8.76-7.83-8.76h-7.08l11.85,12.6v10.21h5.35V368.23l11.81-12.47Z"/><path d="M429.46,355.76l-11.81,12.47v10.34H412.3V368.36l-11.85-12.6h7.08l7.83,8.76,7.86-8.76h6.24m-41.37,0c2.19,0,3.68.37,4.47,1.12s1.18,2.1,1.18,4.06v.52l-5.15.92v-2.54H372v14.43h16.58V369.2h-8.68v-3.88h13.83v7.85c0,2.09-.38,3.51-1.16,4.27s-2.27,1.13-4.49,1.13H372.36c-2.22,0-3.71-.38-4.49-1.13s-1.17-2.18-1.17-4.27v-12c0-2.07.39-3.49,1.17-4.25s2.27-1.14,4.49-1.14h15.73m-36.8,0c2.21,0,3.71.38,4.49,1.14s1.16,2.18,1.16,4.25v12c0,2.09-.39,3.51-1.16,4.27s-2.28,1.13-4.49,1.13H334.5c-2.22,0-3.71-.38-4.49-1.13s-1.17-2.18-1.17-4.27v-12c0-2.07.39-3.49,1.17-4.25s2.27-1.14,4.49-1.14h16.79m-17.14,18.51h17.5V359.84h-17.5v14.43m-30.61-18.51v18.51h17.12v4.3H298.24V355.76h5.3m-15.57,0v22.81h-5.31V355.76H288m-21.57,0a6.07,6.07,0,0,1,3.94,1,4.25,4.25,0,0,1,1.22,3.38v5.35a4.24,4.24,0,0,1-1.22,3.37A6,6,0,0,1,266.4,370h-3L274,378.57h-7.62L257.14,370h-5v8.61h-5.22V355.76H266.4m-14.29,10.29h11.94a3.19,3.19,0,0,0,1.89-.4,1.71,1.71,0,0,0,.5-1.41V361.5a1.69,1.69,0,0,0-.5-1.39,3.19,3.19,0,0,0-1.89-.4H252.11v6.34m-13-10.29v4.08H228.57v18.73h-5.31V359.84H212.79v-4.08h26.29m-48.26,0v3.88h-18v5.1h10.53v3.88H172.78v5.65H191v4.3H167.47V355.76h23.35m-33.65,0v22.81h-5.35v-9.82H135.25v9.82h-5.31V355.76h5.31v8.85h16.57v-8.85h5.35m-35,0v4.08H111.62v18.73h-5.31V359.84H95.84v-4.08h26.29m310.81-1.5H422.55l-.45.5-6.73,7.51-6.72-7.51-.45-.5H397l2.38,2.53L410.8,369v11.11h8.35V368.83l11.4-12,2.39-2.53Zm-44.85,0H372.36c-2.65,0-4.46.51-5.54,1.57s-1.62,2.81-1.62,5.32v12c0,2.54.53,4.28,1.62,5.34s2.89,1.56,5.54,1.56h15.73c2.65,0,4.46-.51,5.53-1.56s1.62-2.8,1.62-5.34v-9.35h-6.16l4.93-.89,1.23-.22v-1.77c0-2.41-.54-4.1-1.65-5.15s-2.89-1.53-5.5-1.53Zm-14.58,7.08h13.58v2.48h-8.68v6.88h8.68v2.07H373.51V361.34Zm-22.22-7.08H334.5c-2.65,0-4.46.51-5.54,1.57s-1.62,2.81-1.62,5.32v12c0,2.54.53,4.28,1.62,5.34s2.89,1.56,5.54,1.56h16.79c2.64,0,4.45-.51,5.53-1.56s1.62-2.8,1.62-5.34v-12c0-2.51-.53-4.25-1.61-5.32s-2.89-1.57-5.54-1.57Zm-15.64,7.08h14.5v11.43h-14.5V361.34ZM305,354.26h-8.3v25.81h25.42v-7.3H305V354.26Zm-15.57,0h-8.31v25.81h8.31V354.26Zm-23.07,0h-21v25.81h8.22v-8.61h2.94l8.76,8.2.43.41h12.42l-3.26-2.66-7.33-6a6.38,6.38,0,0,0,3.75-1.38,5.66,5.66,0,0,0,1.74-4.5v-5.35a5.66,5.66,0,0,0-1.74-4.51,7.33,7.33,0,0,0-4.92-1.41Zm-12.79,6.95h10.44a4.29,4.29,0,0,1,.88.07,1.28,1.28,0,0,1,0,.22v2.74a1.63,1.63,0,0,1,0,.24,4.29,4.29,0,0,1-.88.07H253.61v-3.34Zm-13-6.95H211.29v7.08h10.47v18.73h8.31V361.34h10.51v-7.08Zm-48.26,0H166v25.81h26.57v-7.3H174.28v-2.65h10.53v-6.88H174.28v-2.1h18v-6.88Zm-33.65,0h-8.35v8.85H136.75v-8.85h-8.31v25.81h8.31v-9.82h13.57v9.82h8.35V354.26Zm-35,0H94.34v7.08h10.47v18.73h8.31V361.34h10.51v-7.08Z" style="fill:url(#linear-gradient-5)"/><path d="M411.94,243.67a3.28,3.28,0,1,1-3.27-3.19A3.21,3.21,0,0,1,411.94,243.67Zm-5.74,0a2.47,2.47,0,0,0,2.49,2.55,2.44,2.44,0,0,0,2.43-2.53,2.46,2.46,0,1,0-4.92,0Zm2,1.67h-.74v-3.19a6.25,6.25,0,0,1,1.22-.1,1.92,1.92,0,0,1,1.11.24.86.86,0,0,1,.31.7.82.82,0,0,1-.66.74v0a.94.94,0,0,1,.59.77,2.18,2.18,0,0,0,.23.8h-.8a2.69,2.69,0,0,1-.25-.78c-.06-.35-.25-.5-.66-.5h-.35Zm0-1.81h.35c.41,0,.74-.13.74-.46s-.22-.49-.68-.49a1.65,1.65,0,0,0-.41,0Z" style="fill:#fff"/></g></g></svg>